<svg xmlns="http://www.w3.org/2000/svg"
	fill="#636363"
	viewBox="0 0 128 128">
	<path d="M27.53,77.16l-3.47,2a2,2,0,0,0,1,3.74,2,2,0,0,0,1-.27l3.48-2a2,2,0,0,0-2-3.47Z"></path>
	<path d="M84.48,92.73l-3.71-1.49A2,2,0,0,0,79.27,95L83,96.44a2,2,0,1,0,1.5-3.71Z"></path>
	<path d="M40,74.82l-3.71-1.49A2,2,0,1,0,34.74,77l3.71,1.49A2,2,0,1,0,40,74.82Z"></path>
	<path d="M51.08,79.3l-3.71-1.5a2,2,0,0,0-1.49,3.72L49.59,83a1.91,1.91,0,0,0,.74.14,2,2,0,0,0,.75-3.85Z"></path>
	<path d="M73.35,88.25l-3.72-1.49a2,2,0,0,0-1.49,3.71L71.85,92a2.21,2.21,0,0,0,.75.14,2,2,0,0,0,.75-3.86Z"></path>
	<path d="M106.74,101.69,103,100.2a2,2,0,1,0-1.49,3.71l3.71,1.49a2,2,0,0,0,1.49-3.71Z"></path>
	<path d="M128,111.56V15a2,2,0,0,0-2-2H2a2,2,0,0,0-2,2v98a2,2,0,0,0,2,2H126a2,2,0,0,0,2-2v-1.44ZM4,94.76a1.46,1.46,0,0,0,.22,0,2,2,0,0,0,1-.27l3.47-2a2,2,0,0,0-2-3.48L4,90.6V17H124V78.42l-.69-.35a2,2,0,0,0-1.78,3.59L124,82.88V109.1a2,2,0,0,0-1.3,1.16,1.91,1.91,0,0,0-.14.74H4Z"></path>
	<path d="M117.88,106.17l-3.71-1.49a2,2,0,1,0-1.5,3.71l3.71,1.49a2,2,0,1,0,1.5-3.71Z"></path>
	<path d="M17.11,83.11l-3.47,2a2,2,0,0,0,1,3.73,2,2,0,0,0,1-.26l3.47-2a2,2,0,1,0-2-3.47Z"></path>
	<path d="M95.61,97.21,91.9,95.72a2,2,0,1,0-1.49,3.71l3.71,1.49a2,2,0,0,0,.74.15,2,2,0,0,0,.75-3.86Z"></path>
	<path d="M62.21,83.78l-3.71-1.5A2,2,0,0,0,57,86l3.71,1.5a1.94,1.94,0,0,0,.74.14,2,2,0,0,0,.75-3.85Z"></path>
	<path d="M115.25,78.31a2,2,0,0,0,.89-3.79l-3.59-1.78a2,2,0,1,0-1.77,3.58l3.58,1.78A2,2,0,0,0,115.25,78.31Z"></path>
	<path d="M79.65,68.38a2,2,0,0,0,1-.27l3.47-2a2,2,0,1,0-2-3.47l-3.47,2a2,2,0,0,0,1,3.74Z"></path>
	<path d="M104.5,73a2,2,0,0,0,.89-3.79l-3.59-1.78A2,2,0,1,0,100,71l3.58,1.78A2,2,0,0,0,104.5,73Z"></path>
	<path d="M92.86,67.44a2,2,0,0,0,.89.21,2,2,0,0,0,.89-3.79l-3.59-1.78a2,2,0,1,0-1.77,3.58Z"></path>
	<path d="M61.31,74.6l-3.47,2a2,2,0,0,0,1,3.73,2,2,0,0,0,1-.26l3.47-2a2,2,0,0,0-2-3.47Z"></path>
	<path d="M71.72,68.62l-3.47,2a2,2,0,1,0,2,3.46l3.47-2a2,2,0,0,0-2-3.47Z"></path>
	<path d="M51.39,40.24a2,2,0,1,0,3.38-2.14,15.55,15.55,0,0,0-3-3.46,2,2,0,1,0-2.59,3A11.28,11.28,0,0,1,51.39,40.24Z"></path>
	<path d="M44.76,59.41a2,2,0,0,0,2.58,1.15,15.31,15.31,0,0,0,4-2.27,2,2,0,0,0-2.48-3.14,11.44,11.44,0,0,1-2.94,1.67A2,2,0,0,0,44.76,59.41Z"></path>
	<path d="M29.1,42.05a2,2,0,0,0,.91.22,2,2,0,0,0,1.78-1.09,11.39,11.39,0,0,1,2-2.76,2,2,0,1,0-2.87-2.78,15,15,0,0,0-2.66,3.72A2,2,0,0,0,29.1,42.05Z"></path>
	<path d="M30.67,47.78a2,2,0,1,0-4,.52A15,15,0,0,0,28,52.7a2,2,0,0,0,1.82,1.16,2.12,2.12,0,0,0,.84-.18,2,2,0,0,0,1-2.66A11.16,11.16,0,0,1,30.67,47.78Z"></path>
	<path d="M34.05,59.43a14.83,14.83,0,0,0,4.25,1.72,1.89,1.89,0,0,0,.47.06,2,2,0,0,0,.46-4A11.08,11.08,0,0,1,36.1,56a2,2,0,0,0-2.05,3.44Z"></path>
	<path d="M56.46,50.82a15.44,15.44,0,0,0,.68-4.53,2,2,0,0,0-4,0,11.4,11.4,0,0,1-.5,3.34A2,2,0,0,0,54,52.13a1.7,1.7,0,0,0,.59.1A2,2,0,0,0,56.46,50.82Z"></path>
	<path d="M45.21,33.27a2,2,0,0,0-1.78-2.19,15.29,15.29,0,0,0-4.58.22,2,2,0,0,0,.39,4,1.72,1.72,0,0,0,.39,0A11.35,11.35,0,0,1,43,35.06,2,2,0,0,0,45.21,33.27Z"></path>
</svg>